<?xml version="1.0" encoding="utf-8"?>
<!-- Generator: Adobe Illustrator 23.0.1, SVG Export Plug-In . SVG Version: 6.00 Build 0)  -->
<svg version="1.1" id="레이어_1" xmlns="http://www.w3.org/2000/svg" xmlns:xlink="http://www.w3.org/1999/xlink" x="0px"
	 y="0px" viewBox="0 0 319 165.6" style="enable-background:new 0 0 319 165.6;" xml:space="preserve">
<style type="text/css">
	.st0{fill:#323333;}
	.st1{fill:#F5C51D;}
	.st2{fill:none;stroke:#FFFFFF;stroke-width:2;stroke-miterlimit:10;}
	.st3{fill:none;stroke:#FFFFFF;stroke-width:2;stroke-miterlimit:10;stroke-dasharray:10.506,8.4048;}
	.st4{fill:#434243;}
	.st5{fill:#E61B45;}
	.st6{fill:none;stroke:#FFFFFF;stroke-width:0.5;stroke-dasharray:10;}
	.st7{fill:#D9D9D9;}
	.st8{opacity:4.000000e-02;fill:#FFFFFF;enable-background:new    ;}
	.st9{opacity:0.1;fill:#FFFFFF;enable-background:new    ;}
	.st10{opacity:0.16;fill:#FFFFFF;enable-background:new    ;}
	.st11{opacity:0.56;fill:#FFFFFF;enable-background:new    ;}
	.st12{fill:#FFFFFF;}
	.st13{fill:#4F4F4F;}
</style>
<path class="st12" d="M319,9.3V0H0v9.3c-0.1,17.2,13.8,31.2,31,31.3c0,0,0,0,0,0C13.8,40.6-0.1,54.6,0,71.8c0,0,0,0,0,0v93.8h34.7
	c1.4-3.9,4.2-6.5,7.4-6.5c3.2,0,6,2.6,7.4,6.5h24.4c1.4-3.9,4.2-6.5,7.4-6.5s6,2.6,7.4,6.5H113c1.4-3.9,4.2-6.5,7.4-6.5
	s6,2.6,7.4,6.5h24.4c1.4-3.9,4.2-6.5,7.4-6.5s6,2.6,7.4,6.5h24.4c1.4-3.9,4.2-6.5,7.4-6.5s6,2.6,7.4,6.5h24.4
	c1.4-3.9,4.2-6.5,7.4-6.5s6,2.6,7.4,6.5h24.4c1.4-3.9,4.2-6.5,7.4-6.5s6,2.6,7.4,6.5H319V71.8c0.1-17.2-13.8-31.2-31-31.3
	c0,0,0,0,0,0C305.2,40.5,319.1,26.5,319,9.3z"/>
</svg>
