<?xml version="1.0" encoding="utf-8"?>
<!-- Generator: Adobe Illustrator 23.0.1, SVG Export Plug-In . SVG Version: 6.00 Build 0)  -->
<svg version="1.1" id="레이어_1" xmlns="http://www.w3.org/2000/svg" xmlns:xlink="http://www.w3.org/1999/xlink" x="0px"
	 y="0px" viewBox="0 0 1093.1 431.4" style="enable-background:new 0 0 1093.1 431.4;" xml:space="preserve">
<style type="text/css">
	.st0{fill:#323333;}
	.st1{fill:#F5C51D;}
	.st2{fill:none;stroke:#FFFFFF;stroke-width:2;stroke-miterlimit:10;}
	.st3{fill:none;stroke:#FFFFFF;stroke-width:2;stroke-miterlimit:10;stroke-dasharray:10.506,8.4048;}
	.st4{fill:#434243;}
	.st5{fill:#E61B45;}
	.st6{fill:none;stroke:#FFFFFF;stroke-width:0.5;stroke-dasharray:10;}
	.st7{fill:#D9D9D9;}
	.st8{opacity:4.000000e-02;fill:#FFFFFF;enable-background:new    ;}
	.st9{opacity:0.1;fill:#FFFFFF;enable-background:new    ;}
	.st10{opacity:0.16;fill:#FFFFFF;enable-background:new    ;}
	.st11{opacity:0.56;fill:#FFFFFF;enable-background:new    ;}
	.st12{fill:#FFFFFF;}
	.st13{fill:#4F4F4F;}
</style>
<path class="st12" d="M1093.1,0.5H0c1.3,58,48.3,104.7,106.2,104.7C47.6,105.1,0,153.1,0,212.2v219.1h118.8
	c4.9-13.3,14.4-22.2,25.3-22.2s20.4,9,25.3,22.2h83.5c4.9-13.3,14.4-22.2,25.3-22.2s20.4,9,25.3,22.2h83.5
	c4.9-13.3,14.4-22.2,25.3-22.2s20.4,9,25.3,22.2h83.5c4.9-13.3,14.4-22.2,25.3-22.2c10.9,0,20.4,9,25.3,22.2h83.5
	c4.9-13.3,14.4-22.2,25.3-22.2c10.9,0,20.4,9,25.3,22.2h83.5c4.9-13.3,14.4-22.2,25.3-22.2c10.9,0,20.4,9,25.3,22.2h83.5
	c4.9-13.3,14.4-22.2,25.3-22.2s20.4,9,25.3,22.2h118.8V212.2c0-59.1-47.6-107.1-106.2-107.1C1044.8,105.1,1091.8,58.5,1093.1,0.5z"
	/>
</svg>
