<svg id="그룹_183" data-name="그룹 183" xmlns="http://www.w3.org/2000/svg" width="204.545" height="29.554" viewBox="0 0 204.545 29.554">
  <defs>
    <style>
      .cls-1 {
        fill: #ffe600;
      }

      .cls-2 {
        fill: #4f4f4f;
      }
    </style>
  </defs>
  <path id="패스_10" data-name="패스 10" class="cls-1" d="M118.583,215.007l3.725,7.548a1.358,1.358,0,0,0,1.022.743l8.33,1.21a1.358,1.358,0,0,1,.753,2.316l-6.027,5.875a1.358,1.358,0,0,0-.391,1.2l1.423,8.3a1.358,1.358,0,0,1-1.97,1.431L118,239.712a1.358,1.358,0,0,0-1.264,0l-7.45,3.917a1.358,1.358,0,0,1-1.97-1.431l1.423-8.3a1.357,1.357,0,0,0-.391-1.2l-6.027-5.875a1.358,1.358,0,0,1,.752-2.316l8.33-1.21a1.359,1.359,0,0,0,1.022-.743l3.725-7.548A1.358,1.358,0,0,1,118.583,215.007Z" transform="translate(-101.907 -214.25)"/>
  <path id="패스_12" data-name="패스 12" class="cls-1" d="M118.583,215.007l3.725,7.548a1.358,1.358,0,0,0,1.022.743l8.33,1.21a1.358,1.358,0,0,1,.753,2.316l-6.027,5.875a1.358,1.358,0,0,0-.391,1.2l1.423,8.3a1.358,1.358,0,0,1-1.97,1.431L118,239.712a1.358,1.358,0,0,0-1.264,0l-7.45,3.917a1.358,1.358,0,0,1-1.97-1.431l1.423-8.3a1.357,1.357,0,0,0-.391-1.2l-6.027-5.875a1.358,1.358,0,0,1,.752-2.316l8.33-1.21a1.359,1.359,0,0,0,1.022-.743l3.725-7.548A1.358,1.358,0,0,1,118.583,215.007Z" transform="translate(-14.779 -214.25)"/>
  <path id="패스_11" data-name="패스 11" class="cls-1" d="M118.583,215.007l3.725,7.548a1.358,1.358,0,0,0,1.022.743l8.33,1.21a1.358,1.358,0,0,1,.753,2.316l-6.027,5.875a1.358,1.358,0,0,0-.391,1.2l1.423,8.3a1.358,1.358,0,0,1-1.97,1.431L118,239.712a1.358,1.358,0,0,0-1.264,0l-7.45,3.917a1.358,1.358,0,0,1-1.97-1.431l1.423-8.3a1.357,1.357,0,0,0-.391-1.2l-6.027-5.875a1.358,1.358,0,0,1,.752-2.316l8.33-1.21a1.359,1.359,0,0,0,1.022-.743l3.725-7.548A1.358,1.358,0,0,1,118.583,215.007Z" transform="translate(-58.635 -214.25)"/>
  <path id="패스_13" data-name="패스 13" class="cls-1" d="M118.583,215.007l3.725,7.548a1.358,1.358,0,0,0,1.022.743l8.33,1.21a1.358,1.358,0,0,1,.753,2.316l-6.027,5.875a1.358,1.358,0,0,0-.391,1.2l1.423,8.3a1.358,1.358,0,0,1-1.97,1.431L118,239.712a1.359,1.359,0,0,0-1.264,0l-7.45,3.917a1.358,1.358,0,0,1-1.97-1.431l1.423-8.3a1.357,1.357,0,0,0-.391-1.2l-6.027-5.875a1.358,1.358,0,0,1,.752-2.316l8.33-1.21a1.359,1.359,0,0,0,1.022-.743l3.725-7.548A1.358,1.358,0,0,1,118.583,215.007Z" transform="translate(28.492 -214.251)"/>
  <g id="그룹_77" data-name="그룹 77" transform="translate(173.628 0.017)">
    <g id="그룹_75" data-name="그룹 75" transform="translate(15.459)">
      <path id="패스_14" data-name="패스 14" class="cls-2" d="M296.4,294.355l7.451,3.916a1.358,1.358,0,0,0,1.97-1.431l-1.423-8.3a1.357,1.357,0,0,1,.39-1.2l6.027-5.875a1.358,1.358,0,0,0-.752-2.316l-8.33-1.21a1.357,1.357,0,0,1-1.023-.743l-3.725-7.547a1.34,1.34,0,0,0-1.217-.757v25.3A1.347,1.347,0,0,1,296.4,294.355Z" transform="translate(-295.773 -268.894)"/>
    </g>
    <g id="그룹_76" data-name="그룹 76">
      <path id="패스_15" data-name="패스 15" class="cls-1" d="M298.04,294.355l-7.451,3.916a1.358,1.358,0,0,1-1.97-1.431l1.423-8.3a1.357,1.357,0,0,0-.39-1.2l-6.027-5.875a1.358,1.358,0,0,1,.752-2.316l8.33-1.21a1.357,1.357,0,0,0,1.023-.743l3.725-7.547a1.34,1.34,0,0,1,1.217-.757v25.3A1.347,1.347,0,0,0,298.04,294.355Z" transform="translate(-283.212 -268.894)"/>
    </g>
  </g>
</svg>
